<svg width="106" height="18" viewBox="0 0 106 18" fill="none" xmlns="http://www.w3.org/2000/svg">
<path d="M0.992 17.5V0.699999H8.264C9.768 0.699999 11.064 0.947999 12.152 1.444C13.24 1.924 14.08 2.62 14.672 3.532C15.264 4.444 15.56 5.532 15.56 6.796C15.56 8.044 15.264 9.124 14.672 10.036C14.08 10.948 13.24 11.652 12.152 12.148C11.064 12.628 9.768 12.868 8.264 12.868H3.152L4.88 11.116V17.5H0.992ZM4.88 11.548L3.152 9.7H8.048C9.248 9.7 10.144 9.444 10.736 8.932C11.328 8.42 11.624 7.708 11.624 6.796C11.624 5.868 11.328 5.148 10.736 4.636C10.144 4.124 9.248 3.868 8.048 3.868H3.152L4.88 2.02V11.548ZM26.6101 17.788C25.3141 17.788 24.1061 17.58 22.9861 17.164C21.8821 16.732 20.9221 16.124 20.1061 15.34C19.2901 14.556 18.6501 13.636 18.1861 12.58C17.7381 11.524 17.5141 10.364 17.5141 9.1C17.5141 7.836 17.7381 6.676 18.1861 5.62C18.6501 4.564 19.2901 3.644 20.1061 2.86C20.9381 2.076 21.9061 1.476 23.0101 1.06C24.1141 0.627999 25.3221 0.412 26.6341 0.412C28.0901 0.412 29.4021 0.668 30.5701 1.18C31.7541 1.676 32.7461 2.412 33.5461 3.388L31.0501 5.692C30.4741 5.036 29.8341 4.548 29.1301 4.228C28.4261 3.892 27.6581 3.724 26.8261 3.724C26.0421 3.724 25.3221 3.852 24.6661 4.108C24.0101 4.364 23.4421 4.732 22.9621 5.212C22.4821 5.692 22.1061 6.26 21.8341 6.916C21.5781 7.572 21.4501 8.3 21.4501 9.1C21.4501 9.9 21.5781 10.628 21.8341 11.284C22.1061 11.94 22.4821 12.508 22.9621 12.988C23.4421 13.468 24.0101 13.836 24.6661 14.092C25.3221 14.348 26.0421 14.476 26.8261 14.476C27.6581 14.476 28.4261 14.316 29.1301 13.996C29.8341 13.66 30.4741 13.156 31.0501 12.484L33.5461 14.788C32.7461 15.764 31.7541 16.508 30.5701 17.02C29.4021 17.532 28.0821 17.788 26.6101 17.788Z" fill="#FAA525"/>
<path d="M41.6917 17.788C40.3477 17.788 39.0597 17.612 37.8277 17.26C36.5957 16.892 35.6037 16.42 34.8517 15.844L36.1717 12.916C36.8917 13.428 37.7397 13.852 38.7157 14.188C39.7077 14.508 40.7077 14.668 41.7157 14.668C42.4837 14.668 43.0997 14.596 43.5637 14.452C44.0437 14.292 44.3957 14.076 44.6197 13.804C44.8437 13.532 44.9557 13.22 44.9557 12.868C44.9557 12.42 44.7797 12.068 44.4277 11.812C44.0757 11.54 43.6117 11.324 43.0357 11.164C42.4597 10.988 41.8197 10.828 41.1157 10.684C40.4277 10.524 39.7317 10.332 39.0277 10.108C38.3397 9.884 37.7077 9.596 37.1317 9.244C36.5557 8.892 36.0837 8.428 35.7157 7.852C35.3637 7.276 35.1877 6.54 35.1877 5.644C35.1877 4.684 35.4437 3.812 35.9557 3.028C36.4837 2.228 37.2677 1.596 38.3077 1.132C39.3637 0.651999 40.6837 0.412 42.2677 0.412C43.3237 0.412 44.3637 0.539999 45.3877 0.795999C46.4117 1.036 47.3157 1.404 48.0997 1.9L46.8997 4.852C46.1157 4.404 45.3317 4.076 44.5477 3.868C43.7637 3.644 42.9957 3.532 42.2437 3.532C41.4917 3.532 40.8757 3.62 40.3957 3.796C39.9157 3.972 39.5717 4.204 39.3637 4.492C39.1557 4.764 39.0517 5.084 39.0517 5.452C39.0517 5.884 39.2277 6.236 39.5797 6.508C39.9317 6.764 40.3957 6.972 40.9717 7.132C41.5477 7.292 42.1797 7.452 42.8677 7.612C43.5717 7.772 44.2677 7.956 44.9557 8.164C45.6597 8.372 46.2997 8.652 46.8757 9.004C47.4517 9.356 47.9157 9.82 48.2677 10.396C48.6357 10.972 48.8197 11.7 48.8197 12.58C48.8197 13.524 48.5557 14.388 48.0277 15.172C47.4997 15.956 46.7077 16.588 45.6517 17.068C44.6117 17.548 43.2917 17.788 41.6917 17.788ZM62.9964 0.699999H66.8844V17.5H62.9964V0.699999ZM55.3644 17.5H51.4764V0.699999H55.3644V17.5ZM63.2844 10.612H55.0764V7.324H63.2844V10.612ZM79.0192 17.788C77.6912 17.788 76.4592 17.572 75.3232 17.14C74.2032 16.708 73.2272 16.1 72.3952 15.316C71.5792 14.532 70.9392 13.612 70.4752 12.556C70.0272 11.5 69.8032 10.348 69.8032 9.1C69.8032 7.852 70.0272 6.7 70.4752 5.644C70.9392 4.588 71.5872 3.668 72.4192 2.884C73.2512 2.1 74.2272 1.492 75.3472 1.06C76.4672 0.627999 77.6832 0.412 78.9952 0.412C80.3232 0.412 81.5392 0.627999 82.6432 1.06C83.7632 1.492 84.7312 2.1 85.5472 2.884C86.3792 3.668 87.0272 4.588 87.4912 5.644C87.9552 6.684 88.1872 7.836 88.1872 9.1C88.1872 10.348 87.9552 11.508 87.4912 12.58C87.0272 13.636 86.3792 14.556 85.5472 15.34C84.7312 16.108 83.7632 16.708 82.6432 17.14C81.5392 17.572 80.3312 17.788 79.0192 17.788ZM78.9952 14.476C79.7472 14.476 80.4352 14.348 81.0592 14.092C81.6992 13.836 82.2592 13.468 82.7392 12.988C83.2192 12.508 83.5872 11.94 83.8432 11.284C84.1152 10.628 84.2512 9.9 84.2512 9.1C84.2512 8.3 84.1152 7.572 83.8432 6.916C83.5872 6.26 83.2192 5.692 82.7392 5.212C82.2752 4.732 81.7232 4.364 81.0832 4.108C80.4432 3.852 79.7472 3.724 78.9952 3.724C78.2432 3.724 77.5472 3.852 76.9072 4.108C76.2832 4.364 75.7312 4.732 75.2512 5.212C74.7712 5.692 74.3952 6.26 74.1232 6.916C73.8672 7.572 73.7392 8.3 73.7392 9.1C73.7392 9.884 73.8672 10.612 74.1232 11.284C74.3952 11.94 74.7632 12.508 75.2272 12.988C75.7072 13.468 76.2672 13.836 76.9072 14.092C77.5472 14.348 78.2432 14.476 78.9952 14.476ZM91.1092 17.5V0.699999H98.3812C99.8852 0.699999 101.181 0.947999 102.269 1.444C103.357 1.924 104.197 2.62 104.789 3.532C105.381 4.444 105.677 5.532 105.677 6.796C105.677 8.044 105.381 9.124 104.789 10.036C104.197 10.948 103.357 11.652 102.269 12.148C101.181 12.628 99.8852 12.868 98.3812 12.868H93.2692L94.9972 11.116V17.5H91.1092ZM94.9972 11.548L93.2692 9.7H98.1652C99.3652 9.7 100.261 9.444 100.853 8.932C101.445 8.42 101.741 7.708 101.741 6.796C101.741 5.868 101.445 5.148 100.853 4.636C100.261 4.124 99.3652 3.868 98.1652 3.868H93.2692L94.9972 2.02V11.548Z" fill="white"/>
</svg>
